<?xml version="1.0" encoding="UTF-8" standalone="no"?>
<svg
   class="img-fluid"
   id="noia"
   style="transform: matrix(3.18135, 0, 0, 3.18135, 0, 0); transform-origin: 50% 50% 0px; cursor: move; transition: none 0s ease 0s;"
   width="426"
   height="222"
   viewBox="0 0 4260 2220"
   version="1.1"
   sodipodi:docname="noia.svg"
   inkscape:version="1.2.2 (732a01da63, 2022-12-09)"
   xmlns:inkscape="http://www.inkscape.org/namespaces/inkscape"
   xmlns:sodipodi="http://sodipodi.sourceforge.net/DTD/sodipodi-0.dtd"
   xmlns="http://www.w3.org/2000/svg"
   xmlns:svg="http://www.w3.org/2000/svg">
  <defs
     id="defs5441" />
  <sodipodi:namedview
     id="namedview5439"
     pagecolor="#ffffff"
     bordercolor="#000000"
     borderopacity="0.25"
     inkscape:showpageshadow="2"
     inkscape:pageopacity="0.0"
     inkscape:pagecheckerboard="0"
     inkscape:deskcolor="#d1d1d1"
     showgrid="false"
     inkscape:zoom="1.7147274"
     inkscape:cx="74.355841"
     inkscape:cy="164.74922"
     inkscape:window-width="1920"
     inkscape:window-height="1013"
     inkscape:window-x="-9"
     inkscape:window-y="-9"
     inkscape:window-maximized="1"
     inkscape:current-layer="outputsvg" />
  <path
     d="m 2882.8494,2155.1852 c -30,-37 -49,-82 -49,-116 0,-28 -5,-36 -22,-41 -13,-3 -163,-6 -335,-6 h -258.4771 c -35.5233,-5.2904 -76.236,-17.1207 -112.0911,-61.0227 -22,-44 -21.4318,-88.9773 -23.4318,-208.9773 -2,-102 1,-148 14,-190 23,-77 71,-149 107,-162 17,-5 30,-14 30,-19 1001.1751,-60.6107 580.2282,265.3859 820,511 h 33 c 33,0 67,24 67,48 0,7 5,12 10,12 6,0 10,11 10,23 0,24 -28,57 -47,57 -6,0 -14,27 -18,61 -6,47 -10,59 -22,55 -8,-3 -11,-1 -8,5 4,6 -1,19 -11,30 -14,15 -20,17 -32,6 -13,-9 -14,-9 -8,1 5,9 -9,12 -62,12 -54,0 -72,-4 -83,-17 z m 120,-99 c 13,-16 21,-41 21,-64 0,-31 -8,-47 -48,-90 -82,-89 -101,-93 -422,-99 l -275,-6 -3,-45 c -4,-50 13,-70 59,-70 33,0 38,-12 46,-110 l 6,-76 -37,-32 c -20,-18 -44,-32 -52,-32 -43,0 -101,56 -108,104 -3,17 -8,47 -11,66 -19,116 -25,205 -15,236 21,64 23,64 350,64 162,0 310,4 328,9 41,12 69,45 76,94 7,39 32,77 52,77 7,0 22,-12 33,-26 z m -139.2282,-636.2964 c -1909.0808,-946.59253 -954.5404,-473.29627 0,0 z"
     id="path10548"
     style="font-variation-settings:normal;opacity:1;vector-effect:none;fill:#2e228b;fill-opacity:1;stroke-width:1;stroke-linecap:butt;stroke-linejoin:miter;stroke-miterlimit:4;stroke-dasharray:none;stroke-dashoffset:0;stroke-opacity:1;-inkscape-stroke:none;stop-color:#000000;stop-opacity:1"
     sodipodi:nodetypes="cscscccccccsssssccccccsccsccccscccscccsccsccc" />
  <path
     id="ptflHKJbJ"
     d="m 2959.1592,2115.5045 c -28,-11 -50,-42 -56,-80 -7,-49 -34,-82 -76,-94 -18,-5 -167.1327,-15.5973 -331,-9 0,0 -179.312,30.0097 -265.8863,10.7046 -24.4961,-5.4624 -54.6554,-23.1364 -66.8183,-34.7046 -13.3216,-12.6702 -16.2954,-40 -20.2954,-60 -6,-34 6,-188 21,-276 3,-19 8,-49 11,-66 6,-40 40,-79 85,-98 47,-20 103,-7 142,32 28,28 29,34 28,103 -1,39 -3,82 -6,93 -15,76 -15,76 -43,76 -37,0 -67,22 -59,44 6,14 34,16 262,16 231,0 261,2 317,21 49,16 73,32 108,69 32,35 56,50 83,55 45,9 47,19 6,34 -29,10 -31,13 -26,47 12,75 -51,140 -113,117 z"
     sodipodi:nodetypes="cccsssccccsccscscccccc"
     style="fill:#e2f0ca" />
  <g
     id="bras"
     transform="rotate(6.499721,2906.4268,1424.2003)"
     inkscape:transform-center-x="-589.35058"
     inkscape:transform-center-y="113.84462">
    <path
       d="m 2891.035,1427.8966 c 0,16 -77.5155,4.7336 -68.6423,6.2386 77.8528,13.2049 223.2916,25.9981 215.3248,25.2707 151.5656,10.5769 353.9193,12.1228 445.0511,8.6362 90.808,-16.2686 186.733,-31.2404 251.8573,-56.225 83,-32 343,-65 361,-47 4,4 8,50 8,101 l 1,95 -35,36 c -19,20 -44,41 -55,47 -30,17 -231,58 -310,64 -38,3 -92,7 -120,10 -27,2 -167,7 -310,10 -150,4 -498.8949,-17.921 -505.8949,-12.921 -8,6 5.886,-51.6913 5.886,-16.6913"
       style="font-variation-settings:normal;vector-effect:none;fill:#2e228b;fill-opacity:1;stroke-width:1;stroke-linecap:butt;stroke-linejoin:miter;stroke-miterlimit:4;stroke-dasharray:none;stroke-dashoffset:0;stroke-opacity:1;-inkscape-stroke:none;stop-color:#000000"
       id="path11616"
       sodipodi:nodetypes="cscccsccccccccc" />
    <path
       id="pSj3r7eVw"
       d="m 3022.0744,1665.2453 c -67,-9 -78,-14 -121,-52 -26,-24 -58,-50 -71,-59 -16,-11 -24,-27 -25,-51 l -2,-35 47,8 c 342.1368,56.9773 507.1018,54.625 708.1928,42.466 69,-14 442.0235,-86.6592 493.0235,-90.6592 14,-1 -95.9662,29.9773 -95.9662,48.9773 0,23 4,25 50,28 77,4 46.7499,9.2159 3.7499,31.2159 -43,22 -42,49 1,49 46,1 -77,40 -159,51 -217,29 -695,45 -829,29 z"
       sodipodi:nodetypes="ccccccccscsccc"
       style="fill:#e2f0ca" />
  </g>
  <g
     id="cap"
     transform="rotate(0.73544793,2573.9103,2076.0554)"
     inkscape:transform-center-x="902.04558"
     inkscape:transform-center-y="-646.53816">
    <g
       id="g11641"
       inkscape:transform-center-x="931.88052"
       inkscape:transform-center-y="-680.465"
       transform="rotate(-2.7999706,2566.5251,1406.5872)">
      <path
         id="pNAQlb8dx"
         d="m 1716,1337 c -18,-13 -30,-52 -47,-147 -11,-62 -22,-78 -41,-63 -7,6 -38,16 -68,23 -30,7 -68,16 -84,21 -39,12 -76,11 -76,-1 0,-6 -27,-10 -60,-10 -59,0 -62,1 -104,45 -33,34 -51,45 -73,44 -44,-2 -69,-12 -103,-42 l -31,-28 -35,20 c -21,13 -53,21 -80,21 -24,0 -44,5 -44,10 0,6 -28,10 -65,10 -37,0 -65,-4 -65,-10 -85.06399,-17.1506 -108.0295,-21.2709 -141,-53 -24,-16 -37,-17 -136,-7 -130,12 -262,-1 -302,-30 C 119,1111 5,987 2,968 1,958 14,937 32,921 c 31,-28 34,-28 62,-14 22,11 46,14 87,9 57,-6 129,-32 129,-48 0,-4 7,-8 15,-8 8,0 15,-9 15,-20 0,-11 3,-20 8,-20 12,0 32,-52 32,-86 0,-25 9,-38 47,-68 25,-20 50,-36 55,-36 5,0 32,-24 59,-54 61,-67 131,-98 257,-113 43,-5 174,27 196,48 6,5 20,9 31,9 25,0 107,-40 137,-66 17,-17 34,-19 125,-16 l 106,3 43,-42 c 24,-24 44,-50 44,-59 0,-9 31,-35 73,-59 53,-33 93,-48 154,-60 51,-10 83,-21 83,-28 0,-7 35.3911,20.30994 14,-13 -4.3229,-6.73149 30.7159,46.90403 33.7159,40.90403 5,-10 -8.1234,-90.39829 -1.7159,-52.90403 8.2599,48.33371 12,12 20,12 8,0 14,6 14,14 0,9 18,16 51,20 39,5 60,3 92,-12 23,-11 55,-25 70,-31 35,-14 144,-15 152,-1 10,17 43,11 83,-13 43,-28 170,-63 260,-72 108,-12 325,29 372,71 13,11 15,6 15,-39 0,-52 0,-52 34,-55 39,-4 68,19 105,82 20,36 30,70 52,183 2,13 17,37 33,55 60,69 86,164 86,313 v 100 l -32,3 c -33,3 -33,4 -33,55 0,67 -34,121 -81,131 -77,15 -137,2 -170,-37 -16,-18 -18,-36 -16,-102 l 2,-80 50,1 c 28,0 79,4 115,9 l 65,7 -3,-50 c -3,-41 -8,-52 -27,-60 -13,-6 -36,-33 -51,-59 -15,-26 -37,-64 -50,-83 -13,-20 -27,-50 -30,-68 l -7,-33 -82,78 c -45,43 -95,89 -111,102 -45,38 -152,82 -211,88 -29,3 -53,9 -53,13 0,4 51,10 113,14 61,4 133,9 160,13 l 47,6 v 41 c 0,63 -27,144 -52,157 -15,8 -56,10 -131,6 -117,-7 -130,-13 -143,-67 -3,-14 -9,-33 -15,-42 -12,-23 -12,-60 1,-92 l 10,-26 h -120 c -73,0 -120,-4 -120,-10 0,-5 -11,-10 -24,-10 -21,0 -24,6 -30,54 -8,68 13,123 49,132 22,6 25,11 25,56 0,64 44,197 74,223 56,49 80,117 60,169 -11,29 -89,21 -141,-14 -24,-17 -48,-28 -52,-25 -4,2 -4.5244,-14.7635 -16.5244,-24.7635 -25,-24 -49.7713,-63.9326 -49.7713,-43.9326 0,8 -3.9755,10.8103 -14.9755,10.8103 -11,0 -29.4923,12.2378 -29.4923,20.2378 0,11 4.2211,14.4409 -15.7789,5.4409 -14,-7 -24.4576,26.2071 -24.4576,19.2071 0,-22 -92,-113 -130,-128 -31,-13 -39,-13 -76,1 -44,17 -63,47 -79,125 -13,69 -14,70 -54,70 -20,0 -45,-6 -55,-13 z"
         sodipodi:nodetypes="cccscsscscccsssccccccscssssscscccsccccsccssssssccsccccsccccsccscccccccccsccccccscccsccccccsssccscccccssscscccsc"
         style="fill:#ff298d"
         inkscape:transform-center-x="921.42924"
         inkscape:transform-center-y="-670.66052" />
      <path
         id="pIh1Bm6S2"
         d="m 2281,1360 c 72,0 75,-14 10,-46 -23,-12 -53,-32 -67,-44 -20,-20 -27,-22 -49,-12 -22,10 -29,22 -27,43 1,3 -10,4 -23,1 -16,-3 -25,-11 -25,-24 0,-10 -21,-41 -46,-68 -45,-48 -49,-50 -101,-50 -86,0 -105,17 -123,112 -21,108 -63,126 -128,56 -33,-35 -41,-53 -52,-111 l -12,-69 -67,7 c -36,4 -70,11 -75,16 -46.5362,17.3515 -171.1736,5.0218 -204.9135,-7.85 -12,-3 82.9135,-11.15 99.9135,-12.15 14,0 39,-5 55,-10 16,-5 54,-14 84,-21 30,-7 60,-17 67,-22 6,-5 28,-8 49,-6 40,3 46,14 58,93 17,108 32,134 77,135 3,0 9,-22 12,-48 3,-26 13,-67 22,-90 15,-36 24,-44 66,-59 62.752,-20.23 57.4729,-26.3425 113,-5 18,7 56,35 84,63 l 51,51 32,-23 c 21,-14 36,-19 44,-13 58,44 187,124 199,124 43,0 19,-73 -40,-125 -30,-26 -74,-159 -74,-223 0,-44 -3,-50 -24,-56 -17,-4 -32,-22 -49,-59 -22,-48 -23,-55 -10,-91 7,-21 13,-40 13,-41 0,-1 -34,-6 -75,-10 -62,-6 -75,-10 -75,-24 0,-26 42,-42 82,-30 18,5 66,9 105,9 42,0 73,4 73,10 0,6 38,10 95,10 52,0 95,-4 95,-9 0,-4 24,-11 53,-14 59,-6 165,-50 212,-88 16,-13 72,-66 124,-116 52,-51 98,-93 101,-93 8,0 27,37 35,70 4,14 17,41 30,60 12,19 34,57 49,83 15,26 39,53 52,59 26,12 39,45 30,75 -8,25 17,59 34,48 25,-15 -4,-227 -41,-297 -6,-13 -25,-38 -40,-56 -16,-18 -31,-42 -33,-55 -29,-150 -48,-197 -100,-246 -30,-28 -43,-13 -26,29 15,36 6,80 -17,80 -9,0 -30,-11 -47,-24 -41,-31 -134,-62 -226,-75 -90,-12 -173,-3 -300,35 -14,4 -46,20 -71,36 -52,32 -81,35 -123,13 -15,-8 -38,-15 -50,-15 -39,0 -128,36 -168,68 -13,11 -21,11 -39,1 -33,-17 -174,-19 -246,-3 -76,16 -210,95 -273,159 l -44,45 h -76 c -117,0 -161,17 -265,103 l -34,28 -16,-24 c -10,-16 -36,-31 -73,-42 -31,-9 -71,-22 -89,-28 -24,-8 -39,-8 -58,1 -81.30844,22.04395 -162.92972,53.01459 -217,110 -25,29 -50,52 -56,52 -5,0 -29,15 -53,34 -43,32 -52,48 -108,178 -31,71 -179,105 -283,66 -33,-12 -34,-19 -9,-42 27.541027,-9.32128 23.862308,1.17385 52,3 43.87539,25.45183 79.28786,17.99232 109,-9 25.54111,-15.72551 53.1192,-29.77283 80,-30 33,0 26.64256,-4.90821 33.32128,-20.9541 4.22696,-10.15544 34.74254,-48.48018 35.66898,-53.3936 C 400.60558,601.57248 628.37501,447.67033 790,440 c 86.88956,-2.92167 117.10112,2.88996 145,30 16,16 37,30 47,30 51.9144,50.5862 131.664,-48.1568 189.4207,-62.16237 C 1263.5129,426.20296 1273,440 1318,440 h 78 l 42,-43 c 23,-23 42,-48 42,-55 0,-14 50,-60 105,-98 23,-15 50,-24 75,-24 32.5185,-8.39812 77.2433,-13.30499 100,-29 0,-5 36,-9 80,-9 44,-1 80,3 80,9 72.25,9.64366 70.4148,-33.63344 110,-11 20.2391,-27.60314 17.8431,-39.871 50,-40 75.229,-39.5965 94.4374,-3.03699 170,0 53,0 90,-4 90,-10 0,-5 18,-10 40,-10 22,0 40,-4 40,-10 0,-5 13,-10 28,-10 16,0 37,-9 47,-20 21,-23 41,-26 48,-7 3,9 9,9 26,-1 11,-6 46,-12 76,-12 30,0 55,-4 55,-10 0,-18 35,-11 48,10 7,11 21,20 32,20 11,0 20,5 20,10 0,7 23,10 62,8 56,-3 63,-5 79,-33 10,-16 18,-38 18,-47 51.1825,-55.127812 121.701,59.904049 141,74 23.4768,18.44784 16.598,48.93934 30,68 16.1441,24.53801 6.0547,56.52331 20,80 17.6086,20.8531 5.9429,56.4325 30,72 12.3988,22.9405 32.9545,62.10528 40,81 4.6984,40.39683 39.7612,63.06304 40,97 2.9761,27.91963 19.81,41.8533 20,67 50.2118,131.57192 19.837,171.61785 20,266 -20.7963,89.75466 -79.8293,92.64009 -80,198 -9.5537,37.2656 -30.8738,61.5838 -50,94 -5,3 -7.0553,25.1893 -10,48 -5.8331,45.1853 -104.1908,153.5464 -138.1525,173.9117 C 2852.1737,1417.5272 2004.3208,1361.2218 2281,1360 Z m 247,0 c -1685.33333,-906.66667 -842.6667,-453.33333 0,0 z m 397,-76 c 47,-7 141,-107 154,-164 16,-69 14,-80 -13,-80 -13,0 -29,7 -36,15 -6,7 -33,17 -58,21 -26,5 -39,10 -29,12 13,3 17,14 17,53 v 49 h -37 c -20,0 -63,-5 -95,-12 l -59,-12 3,-41 3,-40 60,-3 60,-3 -4,-45 c -3,-40 -1,-46 20,-51 l 23,-6 -22,-8 c -12,-5 -22,-15 -22,-24 0,-10 -10,-4 -29,17 l -29,33 -114,-1 c -84,-1 -127,-6 -161,-19 -42,-16 -48,-23 -67,-72 -11,-29 -20,-72 -20,-93 v -40 h -72 c -107,1 -142,34 -63,60 38,13 39,13 39,115 1,122 61,215 176,276 132,69 228,85 375,63 z M 2767,977 c 19,-11 10.9881,-3.71194 -37.0119,-3.71194 -53,0 -66.9881,0.71194 -31.9881,9.71194 30,8 46,7 69,-6 z m 332,-23 c 36,-7 72,-52 77,-94 4,-37 -9,-46 -86,-54 -127,-13 -115,-17 -117,39 -3,55 15,87 59,104 29,12 29,12 67,5 z m -309,-44 c 17,-9 50,-92 50,-126 0,-12 -29,-17 -192,-30 -75,-6 -78,-6 -87,17 -5,14 -5,28 0,34 5,5 9,18 9,28 0,10 8,32 17,47 13,23 25,30 57,33 85,8 128,7 146,-3 z m 100,-30 c 20,-20 29,-67 11,-55 -9,5 -41,62 -41,72 0,8 11,2 30,-17 z M 2733,690 c 3,-11 3,-20 1,-20 -2,0 -13,9 -24,20 -19,19 -19,20 -1,20 10,0 21,-9 24,-20 z m 341,-15 c -14,-19 -30,-35 -33,-35 -4,0 -18,-22 -31,-50 -13,-27 -26,-50 -30,-50 -3,0 -31,24 -61,53 -31,28 -67,58 -82,66 -33,17 -26,31 16,31 18,0 39,5 47,10 8,5 57,10 108,10 h 93 z"
         sodipodi:nodetypes="cccsccscsccccccccssccccscccscccscscccscscsssscccsccsscccccccscccccscccccsccccsccscccccccscccccsccsccccccccsssscccsscsscccccccccccccsccccccscccscsccccccccccscccccscccccccscccccccccscccscccscssssssscscsccssscc"
         style="fill:#2e228b" />
      <path
         id="p19S6MAidP"
         d="m 985,1220 c -16,18 -31,20 -152,20 -82,0 -133,-4 -133,-10 -45.53518,-2.1721 -97.99353,-49.2738 -131,-50 -25.25814,-0.069 -16.69113,-10.4698 -44.27538,-6.2754 -7,6 -33.72462,6.2754 -51.72462,6.2754 -32.00702,5.4376 -53.01418,19.8376 -82,20 -45.5278,27.0029 -70.36155,0.4384 -92,0 -21.08461,-5.4051 -64.47981,-27.4051 -85.2559,-27.6328 C 145.11401,1166.1644 16.274032,1018.5941 2,963 c -5,-35 10,-27 43,22 17,24 35,45 41,45 6,0 19,10 30,21 69,77 168,103 325,86 126,-14 153,-13 185,8 36,24 92,45 122,45 66.20927,10.6374 78.77782,0.443 136,0 29,0 59,-9 87,-25 58,-33 70,-32 115,10 22,19 48,35 59,36 37,4 70,-2 77,-14 4,-6 79.5387,-48.1882 82.5387,-45.1882 3,2 85.3137,-5.6636 71.3137,12.3364 -59.3335,39.9536 -145.0592,94.7312 -259.0579,85.2374 C 1059.6546,1216.1376 1048.3989,1149.1261 985,1220 Z"
         sodipodi:nodetypes="cscccccccccsccccccccccccc"
         style="fill:#2e228b" />
      <path
         id="p181VKq1wE"
         d="m 2534,1459 c -35,-12 -47,-37 -45,-91 1,-29 3,-53 5,-56 2,-2 36,6 75,18 46,14 72,28 76,40 7,21 -7,61 -26,77 -19,15 -62,21 -85,12 z"
         sodipodi:nodetypes="ccccscc"
         style="fill:#e2f0ca" />
      <path
         id="pTw0fmuoS"
         d="m 2730,1320 c -131,-17 -268,-83 -316,-152 -58,-81 -67,-108 -70,-203 -2,-49 -7,-91 -11,-92 -51,-17 -78,-41 -81,-69 -5,-52 28,-65 151,-62 l 102,3 -2,38 c -1,21 7,62 18,91 17,47 25,55 62,70 30.5102,14.99051 65.009,20.47386 97,25 60.7417,1.36532 48.203,10.24355 82.203,-6.75645 43,-22 98.797,-48.24355 90.797,-56.24355 -4,-3 5.6612,1.26998 9,-6 22.7773,-49.59621 33.8097,-58.68144 37.8097,-66.68144 9,-25 8.1903,34.68144 15.1903,67.68144 4,19 16,34 31,39 34,13 33,57 -2,70 -14,6 -24,16 -21,23 5,16 57,10 78,-9 9,-8 37,-14 67,-14 h 52 v 45 c 0,95 -17,137 -79,199 -56,55 -61,58 -127,66 -78,11 -106,10 -184,0 z m 200,-180 c 0,-21 -44,-34 -95,-28 -46,5 -39,24 12,35 74,16 83,15 83,-7 z"
         sodipodi:nodetypes="cccccccccccccsccccccscscccsccs"
         style="fill:#e2f0ca" />
      <path
         id="pZ9dUNkon"
         d="m 2884,745 c -15,-17 -38,-24 -87,-29 -41,-5 -93.738,-9.59763 -93.738,-16.59763 C 2733.1011,666.6731 2749.8036,671.87582 2783,646 c 19,-15 37,-26 41,-26 4,0 22,-15 40,-32 44,-45 125,-118 130,-118 2,0 19,32 37,70 17,39 35,70 39,70 16,0 81,95 78,115 -3,19 -9,20 -111,17 -84,-3 -111,0 -120,10 -10,12 -15,11 -33,-7 z"
         style="fill:#e2f0ca"
         sodipodi:nodetypes="ccccscscscccc" />
    </g>
  </g>
</svg>
